<?xml version="1.0" encoding="UTF-8" standalone="no"?>
<!-- Created with Inkscape (http://www.inkscape.org/) -->

<svg
   width="68.875137mm"
   height="24.330572mm"
   viewBox="0 0 68.875137 24.330572"
   version="1.1"
   id="svg1"
   xml:space="preserve"
   xmlns="http://www.w3.org/2000/svg"
   xmlns:svg="http://www.w3.org/2000/svg"><defs
     id="defs1" /><g
     id="layer1"
     transform="translate(-41.306315,-234.40702)"><g
       id="g118"
       transform="translate(0.50682594,86.920649)"><rect
         style="display:inline;fill:#f45000;fill-opacity:1;stroke:none;stroke-width:0.201282;stroke-linecap:round;stroke-linejoin:round;stroke-dasharray:none;stroke-opacity:0.3;paint-order:normal"
         id="rect113"
         width="24.33058"
         height="24.33058"
         x="40.799488"
         y="147.48636"
         ry="5.2537727" /><g
         id="g117"
         transform="translate(-1.2119859,5.3424516)"><g
           style="fill:none;fill-opacity:1;stroke-width:1.6497;stroke-dasharray:none"
           id="g113"
           transform="matrix(0.85407874,0,0,0.85407874,44.691429,145.11185)"><path
             d="M 4,12.6111 8.92308,17.5 20,6.5"
             stroke="#000000"
             stroke-width="2"
             stroke-linecap="round"
             stroke-linejoin="round"
             id="path113"
             style="fill:none;fill-opacity:1;stroke:#ffffff;stroke-width:1.6497;stroke-dasharray:none;stroke-opacity:1" /></g><g
           style="fill:none;fill-opacity:1;stroke-width:1.6497;stroke-dasharray:none"
           id="g114"
           transform="matrix(0.85407874,0,0,0.85407874,44.691429,142.55557)"><path
             d="M 5.4965148,14.107615 8.92308,17.5 18.503485,7.9965148"
             stroke="#000000"
             stroke-width="2"
             stroke-linecap="round"
             stroke-linejoin="round"
             id="path114"
             style="fill:none;fill-opacity:1;stroke:#ffffff;stroke-width:1.6497;stroke-dasharray:none;stroke-opacity:0.5" /></g><g
           style="fill:none;fill-opacity:1;stroke-width:1.6497;stroke-dasharray:none"
           id="g116"
           transform="matrix(0.85407874,0,0,0.85407874,44.799633,144.29134)"><path
             d="M 6.8663395,10.578759 8.7963899,12.474629 16.88028,4.4676583"
             stroke="#000000"
             stroke-width="2"
             stroke-linecap="round"
             stroke-linejoin="round"
             id="path115"
             style="fill:none;fill-opacity:1;stroke:#ffffff;stroke-width:1.6497;stroke-dasharray:none;stroke-opacity:0.3" /><path
             d="M 8.7963899,9.4815893 15.383765,2.9711433"
             stroke="#000000"
             stroke-width="2"
             stroke-linecap="round"
             stroke-linejoin="round"
             id="path116"
             style="fill:none;fill-opacity:1;stroke:#ffffff;stroke-width:1.6497;stroke-dasharray:none;stroke-opacity:0.2" /></g></g></g><g
       id="text124"
       style="font-size:10.5189px;fill:#a93500;stroke:#ffffff;stroke-width:0.596345;stroke-linecap:round;stroke-linejoin:round;stroke-opacity:0.3"
       aria-label="Pollify"><path
         style="font-weight:bold;font-family:Sans;-inkscape-font-specification:'Sans, Bold';fill:#f45000;stroke:none"
         d="m 80.617587,244.3021 q 0,0.51362 -0.179766,1.0067 -0.179766,0.48793 -0.513618,0.82179 -0.45712,0.45198 -1.0221,0.68311 -0.559844,0.23113 -1.397042,0.23113 h -1.227547 v 2.49104 H 74.30522 v -7.64777 h 3.246067 q 0.729338,0 1.227547,0.1284 0.503346,0.12327 0.88856,0.37494 0.462256,0.30304 0.703657,0.77557 0.246536,0.47253 0.246536,1.13509 z m -2.039064,0.0462 q 0,-0.32358 -0.17463,-0.55471 -0.17463,-0.23626 -0.405758,-0.32871 -0.308171,-0.12327 -0.600933,-0.13354 -0.292763,-0.0154 -0.7807,-0.0154 h -0.338988 v 2.29073 h 0.56498 q 0.503346,0 0.826925,-0.0616 0.328716,-0.0616 0.549572,-0.24654 0.190038,-0.16435 0.272217,-0.39035 0.08732,-0.23112 0.08732,-0.55984 z"
         id="path1" /><path
         style="font-weight:bold;font-family:Sans;-inkscape-font-specification:'Sans, Bold';fill:#f45000;fill-opacity:0.9;stroke:none"
         d="m 87.808242,246.65448 q 0,1.42272 -0.832062,2.24451 -0.826925,0.81665 -2.32669,0.81665 -1.499765,0 -2.331826,-0.81665 -0.826926,-0.82179 -0.826926,-2.24451 0,-1.433 0.832062,-2.24965 0.837197,-0.81665 2.32669,-0.81665 1.510038,0 2.331827,0.82178 0.826925,0.82179 0.826925,2.24452 z m -2.275329,1.40217 q 0.179767,-0.22085 0.267082,-0.52902 0.09245,-0.31331 0.09245,-0.86288 0,-0.50848 -0.09245,-0.85261 -0.09245,-0.34412 -0.256809,-0.54957 -0.164358,-0.21058 -0.395486,-0.2979 -0.231128,-0.0873 -0.49821,-0.0873 -0.267081,0 -0.477665,0.0719 -0.205447,0.0719 -0.395486,0.28763 -0.169494,0.20031 -0.272217,0.54957 -0.09759,0.34926 -0.09759,0.87829 0,0.47253 0.08732,0.82179 0.08732,0.34412 0.256809,0.5547 0.164358,0.20032 0.39035,0.29277 0.231128,0.0924 0.523891,0.0924 0.251673,0 0.477665,-0.0822 0.231128,-0.0873 0.390349,-0.28763 z"
         id="path2" /><path
         style="font-weight:bold;font-family:Sans;-inkscape-font-specification:'Sans, Bold';fill:#f45000;fill-opacity:0.81;stroke:none"
         d="m 90.982402,249.53587 h -1.849026 v -7.9919 h 1.849026 z"
         id="path3" /><path
         style="font-weight:bold;font-family:Sans;-inkscape-font-specification:'Sans, Bold';fill:#f45000;fill-opacity:0.72;stroke:none"
         d="m 94.577729,249.53587 h -1.849025 v -7.9919 h 1.849025 z"
         id="path4" /><path
         style="font-weight:bold;font-family:Sans;-inkscape-font-specification:'Sans, Bold';fill:#f45000;fill-opacity:0.63;stroke:none"
         d="m 98.173056,249.53587 h -1.849025 v -5.76793 h 1.849025 z m 0.05136,-6.58972 h -1.951749 v -1.40218 h 1.951749 z"
         id="path12" /><path
         style="font-weight:bold;font-family:Sans;-inkscape-font-specification:'Sans, Bold';fill:#f45000;fill-opacity:0.54;stroke:none"
         d="m 103.6585,242.89993 h -0.13868 q -0.12327,-0.036 -0.32358,-0.0822 -0.19517,-0.0462 -0.42116,-0.0462 -0.54444,0 -0.73961,0.19518 -0.19004,0.19517 -0.19004,0.75502 v 0.0462 h 1.42785 v 1.25323 h -1.36622 v 4.5147 h -1.84902 v -4.5147 h -0.790977 v -1.25323 h 0.790977 v -0.15922 q 0,-1.05805 0.55984,-1.58708 0.56498,-0.52903 1.70521,-0.52903 0.4109,0 0.74475,0.0308 0.33385,0.0257 0.59066,0.0719 z"
         id="path13" /><path
         style="font-weight:bold;font-family:Sans;-inkscape-font-specification:'Sans, Bold';fill:#f45000;fill-opacity:0.45;stroke:none"
         d="m 106.9662,247.49681 1.31486,-3.72887 h 1.90039 l -3.20498,7.88404 h -2.00311 l 0.91424,-2.1572 -2.24451,-5.72684 h 1.94148 z"
         id="path14" /></g></g></svg>
